<?xml version="1.0" encoding="UTF-8"?>
<svg xmlns="http://www.w3.org/2000/svg" version="1.0" width="406px" height="143px" viewBox="0 0 406 143" preserveAspectRatio="xMidYMid meet" style="background: transparent;">
 
 <g fill="#000001">
  <path d="M139.21 78.12 c-1.74 -0.38 -2.98 -0.92 -4.28 -1.79 -0.54 -0.38 -1.03 -0.68 -1.10 -0.68 -0.07 0 -0.14 0.35 -0.14 0.80 0 0.45 -0.14 0.85 -0.28 0.89 -0.16 0.05 -1.32 0.07 -2.54 0.07 l-2.23 0 0 -21.97 0 -21.97 2.54 -0.07 2.51 -0.07 0 7.78 c0 4.25 0.07 7.75 0.19 7.75 0.09 0 0.63 -0.38 1.20 -0.82 2.23 -1.79 5.10 -2.70 8.41 -2.70 3.99 0 6.70 0.99 8.95 3.27 3.27 3.24 4.91 9.26 4.28 15.53 -0.66 6.23 -3.24 10.55 -7.64 12.71 -3.10 1.53 -6.65 2 -9.87 1.27z m6.74 -4.63 c2.56 -1.20 4.51 -3.92 5.24 -7.35 0.45 -2.14 0.45 -7.03 0 -9.14 -0.45 -2.16 -1.50 -4.32 -2.58 -5.43 -3.20 -3.20 -9.66 -2.77 -13.65 0.89 l-1.27 1.15 0 8.79 0 8.81 0.63 0.59 c0.73 0.68 3.15 1.88 4.44 2.19 0.52 0.14 2.02 0.21 3.38 0.19 2.09 -0.05 2.65 -0.16 3.81 -0.68z"/>
  <path d="M173.63 78.12 c-4.21 -1.20 -6.79 -4.16 -7.52 -8.62 -0.14 -0.85 -0.23 -6.09 -0.23 -12.34 0 -10.20 0.02 -10.88 0.42 -10.90 3.12 -0.19 4.39 -0.19 4.53 0.07 0.12 0.16 0.19 5.15 0.21 11.07 0 10.74 0.09 12.12 0.85 13.65 2.21 4.35 9.45 4.25 14.31 -0.16 l1.41 -1.27 0.07 -11.68 c0.05 -7.26 0.14 -11.65 0.28 -11.68 0.31 -0.02 0.99 -0.02 3.05 0 l1.64 0.02 0 15.51 0 15.51 -2.47 0 -2.47 0 0 -1.64 c0 -0.89 -0.07 -1.64 -0.14 -1.64 -0.07 0 -0.73 0.49 -1.46 1.08 -1.43 1.17 -3.48 2.28 -5.19 2.84 -1.64 0.52 -5.73 0.61 -7.31 0.19z"/>
  <path d="M267.75 78.12 c-5 -1.27 -8.06 -5.50 -7.59 -10.55 0.21 -2.30 0.96 -3.97 2.54 -5.64 2.89 -3.10 6.77 -4.30 15.88 -4.93 l3.95 -0.26 -0.09 -1.41 c-0.09 -1.95 -0.82 -3.55 -2 -4.37 -1.60 -1.17 -3.10 -1.48 -7.07 -1.46 -4.28 0 -6.06 0.35 -9.59 1.83 -0.38 0.16 -0.42 0 -0.35 -2.14 l0.07 -2.33 1.81 -0.52 c2.61 -0.73 4.93 -1.01 8.67 -1.01 3.97 0 6.27 0.42 8.60 1.55 2.70 1.29 4.30 3.59 4.77 6.84 0.12 0.87 0.23 6.53 0.23 12.59 l0 10.97 -1.74 0 c-0.94 0 -2.04 0.07 -2.44 0.14 l-0.73 0.14 -0.07 -1.60 c-0.05 -0.87 -0.19 -1.62 -0.31 -1.67 -0.14 -0.05 -0.82 0.35 -1.53 0.89 -1.62 1.22 -2.96 1.90 -5.05 2.56 -2.14 0.68 -6.01 0.85 -7.96 0.35z m8.55 -4.49 c1.81 -0.56 3.97 -1.72 5.36 -2.89 l0.80 -0.63 0.09 -4.56 0.12 -4.53 -3.83 0.14 c-4.18 0.19 -6.84 0.59 -8.86 1.34 -3.74 1.41 -5.36 4.25 -4.39 7.59 1.10 3.83 5.33 5.24 10.71 3.55z"/>
  <path d="M308.85 78.24 c-4.44 -0.80 -8.48 -3.78 -10.34 -7.64 -1.22 -2.51 -1.76 -5.12 -1.76 -8.51 0 -4.53 0.80 -7.80 2.61 -10.57 2.73 -4.18 6.88 -6.20 12.78 -6.23 3.22 0 5.22 0.35 8.06 1.46 l1.93 0.73 0 2.70 c0 1.48 -0.07 2.68 -0.16 2.68 -0.07 0 -0.49 -0.28 -0.94 -0.61 -1.01 -0.75 -3.85 -2.07 -5.24 -2.40 -4.35 -1.06 -8.29 -0.23 -10.76 2.23 -2.14 2.14 -3.12 5.29 -3.12 9.82 -0.02 7.94 3.76 12.34 10.57 12.34 3.15 0 6.04 -0.96 8.34 -2.80 0.49 -0.40 1.01 -0.73 1.10 -0.73 0.12 0 0.21 1.15 0.21 2.58 l0 2.56 -1.69 0.82 c-0.94 0.45 -2.35 0.99 -3.12 1.20 -1.67 0.45 -6.74 0.66 -8.46 0.35z"/>
  <path d="M338.64 78.22 c-5.33 -0.89 -9.45 -5.03 -10.93 -10.97 -0.73 -2.87 -0.70 -8.22 0.02 -10.97 1.46 -5.52 4.84 -9.14 9.73 -10.46 1.64 -0.45 2.33 -0.52 4.98 -0.40 2.49 0.07 3.36 0.21 4.75 0.70 4.37 1.55 7.14 4.77 8.58 9.94 0.42 1.57 0.49 2.47 0.49 5.85 0 4.49 -0.33 6.23 -1.76 9.19 -2.63 5.43 -8.95 8.27 -15.86 7.12z m6.67 -4.49 c2.47 -0.92 4.46 -3.43 5.38 -6.77 0.61 -2.16 0.61 -7.94 0 -10.10 -1.25 -4.49 -3.43 -6.70 -7.31 -7.35 -3.99 -0.68 -7.87 1.20 -9.59 4.68 -2.51 5.03 -1.86 13.44 1.34 17.36 0.99 1.17 3.15 2.40 4.86 2.68 1.64 0.28 3.76 0.09 5.31 -0.49z"/>
  <path d="M204.10 77.39 c-0.09 -0.09 -0.16 -7.19 -0.16 -15.77 l0 -15.60 2.54 0.07 2.51 0.07 0.07 1.72 c0.05 0.92 0.12 1.69 0.19 1.69 0.05 0 0.70 -0.49 1.46 -1.10 1.55 -1.27 3.55 -2.26 5.69 -2.80 2.19 -0.56 6.65 -0.35 8.51 0.38 1.64 0.63 3.05 1.81 3.85 3.20 l0.61 1.03 1.15 -1.01 c3.03 -2.61 6.44 -3.95 10.10 -3.97 4.93 -0.05 8.06 1.62 9.61 5.07 1.13 2.49 1.20 3.31 1.34 15.48 l0.14 11.44 -2.26 0.05 c-1.27 0.02 -2.47 0.05 -2.68 0.05 -0.40 0.02 -0.42 -0.73 -0.54 -11.72 -0.12 -11.68 -0.12 -11.75 -0.66 -12.95 -0.89 -2 -2.19 -2.91 -4.53 -3.27 -2.87 -0.42 -7.19 1.10 -9.56 3.38 l-1.22 1.17 0 11.61 c0 9.09 -0.07 11.65 -0.28 11.72 -0.16 0.05 -1.32 0.07 -2.54 0.07 l-2.23 -0.02 -0.12 -11.98 -0.12 -11.98 -0.61 -1.15 c-0.33 -0.68 -0.99 -1.43 -1.53 -1.81 -2.94 -2.07 -8.74 -0.94 -12.38 2.40 l-1.34 1.22 -0.05 11.65 -0.07 11.68 -2.37 0.07 c-1.29 0.02 -2.42 0 -2.51 -0.09z"/>
 </g>
 <g fill="#056aae">
  <path d="M134.91 108.03 l0.07 -12.29 1.48 -0.07 1.46 -0.07 0 0.85 c0 0.45 0.07 0.82 0.14 0.82 0.09 0 0.49 -0.31 0.92 -0.68 1.62 -1.41 4.72 -2.04 6.98 -1.43 1.34 0.38 3.05 1.64 3.88 2.87 1.83 2.75 1.95 7.99 0.28 11.28 -0.61 1.20 -2.89 3.48 -3.45 3.48 -0.23 0 -0.56 0.14 -0.73 0.31 -0.19 0.19 -1.03 0.28 -2.56 0.26 -1.86 0 -2.51 -0.12 -3.52 -0.56 -0.75 -0.33 -1.34 -0.45 -1.46 -0.33 -0.12 0.12 -0.26 1.90 -0.28 3.97 l-0.07 3.76 -1.60 0.07 -1.57 0.07 0.05 -12.29z m9.94 2.42 c2.30 -1.03 3.29 -3.29 3.12 -7.17 -0.07 -1.97 -0.19 -2.54 -0.66 -3.43 -0.89 -1.60 -1.83 -2.11 -3.88 -2.11 -2.49 0 -3.12 0.19 -4.25 1.29 l-1.03 0.99 0 4.58 c0 4.98 -0.02 4.86 1.41 5.59 1.48 0.78 3.90 0.89 5.29 0.26z"/>
  <path d="M184.96 107.91 l0.07 -12.41 1.48 -0.07 1.46 -0.07 0 0.96 0 0.99 0.89 -0.70 c1.76 -1.39 2.33 -1.57 4.86 -1.57 1.97 0 2.51 0.09 3.29 0.52 1.36 0.73 2.58 2.09 3.34 3.71 0.61 1.34 0.66 1.60 0.66 4.58 -0.02 2.75 -0.09 3.36 -0.56 4.51 -0.66 1.69 -2.49 3.74 -3.97 4.46 -1.43 0.70 -4.51 0.75 -6.20 0.12 -0.61 -0.23 -1.36 -0.40 -1.64 -0.35 -0.54 0.07 -0.54 0.12 -0.61 3.90 l-0.05 3.81 -1.53 0 -1.53 0 0.05 -12.38z m9.99 2.40 c1.48 -0.75 2.28 -1.86 2.80 -3.88 0.47 -1.86 0.33 -4.70 -0.33 -6.18 -0.56 -1.25 -1.90 -2.44 -3.01 -2.65 -2.14 -0.40 -4.79 0.45 -5.83 1.86 -0.45 0.61 -0.47 0.99 -0.49 5.10 0 5.12 0 5.10 2.26 5.90 1.79 0.61 3.17 0.56 4.61 -0.14z"/>
  <path d="M114.92 113.13 c-4.86 -1.36 -7.78 -5.71 -7.78 -11.63 0 -4.02 1.06 -6.98 3.27 -9.16 2.19 -2.16 4.49 -3.03 8.04 -3.05 5.26 0 9.12 2.87 10.46 7.82 0.89 3.27 0.54 7.73 -0.80 10.57 -1.15 2.40 -2.70 3.92 -5.33 5.19 -1.29 0.61 -6.01 0.78 -7.85 0.26z m6.65 -3.01 c3.22 -1.48 4.86 -5.07 4.53 -9.92 -0.26 -3.64 -1.62 -6.04 -4.16 -7.35 -1.48 -0.78 -1.60 -0.80 -3.88 -0.70 -3.31 0.14 -5.07 1.15 -6.39 3.64 -2.02 3.83 -1.57 9.66 0.96 12.69 1.86 2.21 6.01 2.96 8.93 1.64z"/>
  <path d="M159.37 113.22 c-1.36 -0.23 -4.30 -1.34 -4.30 -1.62 0 -0.09 0.16 -0.56 0.38 -1.06 0.40 -1.01 0.49 -1.01 3.62 -0.12 3.81 1.08 7.28 -0.05 7.28 -2.35 0 -0.26 -0.28 -0.78 -0.63 -1.17 -0.56 -0.59 -1.17 -0.82 -3.83 -1.53 -3.45 -0.92 -4.84 -1.60 -5.69 -2.77 -0.45 -0.63 -0.54 -1.06 -0.54 -2.56 0 -1.64 0.07 -1.86 0.70 -2.70 1.15 -1.43 2.94 -2.19 5.57 -2.35 2.44 -0.14 3.95 0.12 6.01 1.01 0.66 0.31 1.22 0.63 1.22 0.78 0 0.14 -0.19 0.63 -0.40 1.13 -0.23 0.49 -0.42 0.92 -0.42 0.94 -0.02 0.02 -0.87 -0.28 -1.90 -0.68 -1.69 -0.66 -2.02 -0.70 -3.76 -0.59 -2.91 0.21 -4.09 0.85 -4.09 2.28 0 1.55 0.52 1.88 4.49 2.94 3.52 0.94 4.86 1.62 5.62 2.80 1.74 2.82 -0.05 6.48 -3.71 7.57 -1.17 0.35 -3.71 0.40 -5.62 0.07z"/>
  <path d="M219.14 113.15 c-2.47 -0.68 -3.92 -2.37 -4.11 -4.72 -0.14 -1.57 0.26 -2.77 1.32 -3.92 1.53 -1.69 3.45 -2.35 8.27 -2.87 l2.47 -0.28 -0.02 -0.89 c-0.05 -1.08 -0.68 -2 -1.76 -2.54 -1.10 -0.59 -4.09 -0.56 -6.34 0.05 -0.96 0.26 -1.86 0.47 -2 0.47 -0.42 0 -0.85 -1.93 -0.49 -2.26 0.70 -0.66 2.40 -1.03 5.26 -1.17 2.47 -0.14 3.27 -0.09 4.37 0.23 1.55 0.45 2.80 1.43 3.52 2.82 0.49 0.92 0.52 1.29 0.59 7.96 l0.07 6.98 -1.41 0 -1.41 0 -0.16 -0.82 c-0.16 -0.96 -0.35 -1.01 -1.34 -0.26 -0.42 0.31 -1.13 0.73 -1.57 0.96 -1.08 0.54 -3.78 0.68 -5.24 0.26z m4.75 -2.63 c0.78 -0.23 1.62 -0.70 2.23 -1.27 l0.96 -0.92 0.09 -2.28 c0.07 -1.97 0.02 -2.26 -0.28 -2.14 -0.21 0.07 -1.29 0.21 -2.44 0.28 -4.35 0.33 -6.41 1.50 -6.41 3.64 0 2.44 2.63 3.64 5.85 2.68z"/>
  <path d="M241.04 113.27 c-2.33 -0.47 -3.78 -2.07 -4.21 -4.61 -0.12 -0.78 -0.23 -3.50 -0.23 -6.04 l0 -4.65 -1.20 0 -1.17 0 0.07 -1.22 0.07 -1.25 1.10 -0.07 1.10 -0.07 0.07 -2.16 0.07 -2.16 1.48 -0.07 1.46 -0.07 0 2.26 0 2.23 2.94 0 2.96 0 -0.07 1.36 -0.07 1.34 -2.56 0.07 c-1.53 0.05 -2.73 0.16 -2.91 0.33 -0.52 0.45 -0.31 9.87 0.23 10.90 0.66 1.20 2.77 1.81 4.44 1.27 0.49 -0.16 0.96 -0.26 1.01 -0.21 0.05 0.05 0.16 0.59 0.23 1.22 0.16 1.10 0.16 1.13 -0.66 1.46 -0.87 0.38 -2.68 0.42 -4.16 0.14z"/>
  <path d="M267.17 113.22 c-2.51 -0.49 -4.56 -2.14 -5.73 -4.63 -0.70 -1.50 -0.75 -1.72 -0.75 -4.39 0 -2.40 0.09 -3.03 0.54 -4.16 0.73 -1.79 2.33 -3.52 3.97 -4.32 1.17 -0.54 1.64 -0.61 3.92 -0.66 2.23 -0.02 2.77 0.05 3.71 0.49 3.45 1.60 5.40 5.83 4.70 10.24 -0.35 2.30 -0.99 3.69 -2.33 5.12 -2.16 2.30 -4.53 2.98 -8.04 2.30z m3.59 -2.61 c1.39 -0.42 2.84 -1.97 3.29 -3.50 0.47 -1.57 0.47 -4.46 0.02 -6.04 -0.45 -1.46 -1.27 -2.49 -2.54 -3.15 -1.39 -0.70 -4.11 -0.47 -5.43 0.47 -2.91 2.02 -3.27 8.36 -0.63 10.95 1.46 1.43 3.27 1.86 5.29 1.27z"/>
  <path d="M206.52 100.33 l0 -12.69 1.53 0 1.53 0 0.02 11.94 c0 6.56 0.05 12.26 0.12 12.69 l0.09 0.75 -1.64 0 -1.64 0 0 -12.69z"/>
  <path d="M250.23 105.49 l0 -7.52 -1.29 0 -1.29 0 0 -1.15 c0 -1.08 0.02 -1.15 0.73 -1.29 0.40 -0.07 0.99 -0.14 1.27 -0.14 0.47 0 0.54 -0.14 0.68 -1.46 0.31 -2.87 1.83 -4.93 4.25 -5.76 1.20 -0.40 5.10 -0.35 5.52 0.07 0.14 0.14 0.16 0.70 0.09 1.29 l-0.14 1.03 -2.30 0 c-1.97 0 -2.42 0.07 -2.98 0.49 -0.85 0.63 -1.15 1.29 -1.36 2.98 l-0.14 1.34 2.73 0 2.73 0 -0.07 1.36 -0.07 1.34 -2.33 0.07 c-1.29 0.02 -2.49 0.19 -2.65 0.33 -0.23 0.19 -0.31 1.79 -0.31 7.38 l0 7.14 -1.53 0 -1.53 0 0 -7.52z"/>
  <path d="M282.41 104.34 l-0.02 -8.65 0.54 -0.16 c0.31 -0.07 0.99 -0.14 1.55 -0.14 l0.99 0 0 1.13 c0 0.63 0.07 1.22 0.16 1.29 0.07 0.09 0.63 -0.31 1.25 -0.87 1.27 -1.17 2.89 -1.79 4.79 -1.79 1.67 0 1.83 0.16 1.74 1.67 l-0.07 1.27 -2.14 0.12 c-1.83 0.09 -2.28 0.21 -3.29 0.82 -0.80 0.49 -1.32 1.03 -1.67 1.76 -0.52 0.99 -0.54 1.29 -0.54 6.63 l0 5.59 -1.62 0 -1.62 0 -0.05 -8.67z"/>
  <path d="M297.22 104.46 c0 -4.72 0.07 -8.62 0.19 -8.67 0.09 -0.07 0.78 -0.19 1.53 -0.28 l1.34 -0.16 0 1.10 0 1.10 0.82 -0.73 c1.43 -1.25 2.51 -1.67 4.75 -1.81 1.83 -0.14 2.21 -0.09 3.31 0.38 1.13 0.49 2.21 1.43 2.44 2.14 0.07 0.19 0.59 -0.07 1.41 -0.70 2.63 -1.97 5.66 -2.47 8.06 -1.34 1.43 0.66 2.04 1.32 2.75 2.84 0.52 1.13 0.54 1.46 0.61 7.94 l0.09 6.77 -1.62 -0.07 -1.60 -0.07 -0.12 -6.58 c-0.12 -6.91 -0.14 -7.03 -1.29 -8.11 -0.56 -0.52 -0.82 -0.59 -2.26 -0.54 -1.76 0.05 -3.15 0.54 -4.37 1.57 l-0.78 0.66 0 6.56 0 6.56 -1.62 0 -1.64 0 -0.07 -6.63 c-0.07 -6.11 -0.12 -6.72 -0.54 -7.40 -0.96 -1.62 -3.52 -1.90 -5.97 -0.66 -2.19 1.10 -2.14 0.92 -2.14 8.25 l0 6.44 -1.64 0 -1.64 0 0 -8.55z"/>
  <path d="M53.22 92.08 c-6.98 -3.99 -12.85 -7.38 -13.04 -7.50 -0.75 -0.49 2.16 -2.11 3.20 -1.79 0.26 0.07 5.52 3.03 11.72 6.58 l11.28 6.44 0.07 1.79 c0.05 1.34 0 1.79 -0.23 1.76 -0.16 0 -6.01 -3.29 -12.99 -7.28z"/>
  <path d="M68.98 98.52 c-0.28 -1.79 -0.19 -2.35 0.52 -2.84 0.61 -0.42 3.29 -2 8.15 -4.75 1.29 -0.75 5.05 -2.89 8.39 -4.79 4.51 -2.56 6.23 -3.43 6.81 -3.43 0.78 0.02 2.61 1.06 2.63 1.53 0.02 0.26 -3.55 2.47 -7.38 4.53 -0.59 0.31 -1.74 0.96 -2.58 1.46 -0.85 0.47 -2.80 1.60 -4.35 2.47 -1.55 0.89 -3.57 2.07 -4.49 2.63 -0.92 0.54 -1.74 1.01 -1.86 1.01 -0.12 0 -0.38 0.14 -0.56 0.33 -0.21 0.19 -0.96 0.61 -1.67 0.99 -0.70 0.35 -1.69 0.89 -2.16 1.20 -0.49 0.31 -0.99 0.54 -1.08 0.54 -0.12 0 -0.28 -0.40 -0.38 -0.87z"/>
  <path d="M61.68 80.80 c-5.66 -3.15 -7.87 -4.44 -7.87 -4.56 0 -0.26 2.14 -1.53 2.63 -1.57 0.31 -0.02 2.54 1.06 5.31 2.61 l4.75 2.65 0 1.74 c0 0.96 -0.02 1.74 -0.07 1.74 -0.02 0 -2.19 -1.17 -4.75 -2.61z"/>
  <path d="M68.98 83.24 c-0.07 -0.09 -0.14 -0.85 -0.14 -1.72 l0 -1.57 3.95 -2.19 c2.16 -1.22 4.32 -2.44 4.79 -2.75 0.49 -0.31 1.01 -0.54 1.15 -0.54 0.23 0 2.16 1.10 2.80 1.57 0.16 0.14 -1.20 1.17 -2.35 1.79 -1.08 0.56 -1.95 1.03 -5.10 2.82 -3.81 2.14 -4.96 2.73 -5.10 2.58z"/>
  <path d="M38.06 66.96 c0 -12.97 0.05 -15.04 0.33 -15.04 0.19 0 0.99 0.38 1.76 0.82 l1.43 0.85 0 13.23 c0 12.31 -0.02 13.25 -0.40 13.58 -0.61 0.52 -2.54 1.60 -2.84 1.60 -0.21 0 -0.28 -3.76 -0.28 -15.04z"/>
  <path d="M95.46 81.13 l-1.48 -0.87 0 -13.42 0 -13.39 1.39 -0.78 c2.35 -1.27 2.14 -2.77 2.14 14.29 0 11.87 -0.07 15.04 -0.28 15.04 -0.16 0 -0.96 -0.40 -1.76 -0.87z"/>
  <path d="M52.16 66.73 c0 -4.28 0.09 -7.28 0.21 -7.28 0.12 0 0.80 0.35 1.53 0.78 l1.32 0.75 0 5.80 0 5.78 -1.17 0.73 c-2 1.25 -1.88 1.67 -1.88 -6.56z"/>
  <path d="M81.53 73.24 l-1.29 -0.78 -0.07 -5.66 -0.05 -5.66 1.15 -0.70 c2.19 -1.34 2.02 -1.86 2.09 6.37 0.05 5.69 0 7.21 -0.23 7.21 -0.16 0 -0.89 -0.35 -1.60 -0.78z"/>
  <path d="M55.03 58.22 c-0.66 -0.42 -1.20 -0.87 -1.15 -1.01 0.09 -0.28 11.89 -6.88 12.34 -6.91 0.19 -0.02 0.28 0.45 0.28 1.60 0 1.60 0 1.60 -0.87 2.19 -0.49 0.33 -1.83 1.10 -3.01 1.74 -1.15 0.61 -2.54 1.41 -3.05 1.76 -0.99 0.66 -2.56 1.39 -3.03 1.39 -0.14 0 -0.82 -0.35 -1.50 -0.75z"/>
  <path d="M75.42 57.19 c-1.74 -0.99 -3.95 -2.21 -4.89 -2.73 l-1.72 -0.94 0.07 -1.46 c0.05 -1.15 0.14 -1.43 0.49 -1.50 0.23 -0.05 2.91 1.32 5.99 3.03 5.73 3.17 6.16 3.43 6.16 3.74 0 0.28 -2.07 1.64 -2.51 1.64 -0.23 0 -1.86 -0.82 -3.59 -1.79z"/>
  <path d="M41.30 50.59 c-0.63 -0.45 -1.13 -0.92 -1.13 -1.01 0 -0.35 1.41 -1.32 4.30 -2.91 1.50 -0.85 2.80 -1.55 2.84 -1.55 0.05 0 0.78 -0.40 1.57 -0.89 0.82 -0.49 2.19 -1.29 3.03 -1.74 0.85 -0.45 4.37 -2.42 7.82 -4.39 3.48 -1.95 6.39 -3.55 6.53 -3.55 0.12 0 0.21 0.80 0.21 1.76 l0 1.76 -0.99 0.61 c-0.56 0.33 -2.49 1.41 -4.30 2.42 -1.81 0.99 -4.23 2.37 -5.38 3.03 -1.15 0.68 -2.14 1.22 -2.19 1.22 -0.07 0 -0.42 0.21 -0.80 0.49 -0.38 0.26 -1.46 0.89 -2.40 1.39 -0.92 0.49 -3.05 1.64 -4.75 2.56 -1.69 0.92 -3.10 1.64 -3.17 1.64 -0.07 0 -0.61 -0.38 -1.22 -0.85z"/>
  <path d="M85.97 47.63 c-3.71 -2.09 -9.07 -5.12 -11.94 -6.74 l-5.19 -2.94 0 -1.57 c0 -0.87 0.12 -1.64 0.23 -1.72 0.14 -0.09 4.09 2 8.76 4.61 4.68 2.63 10.57 5.92 13.09 7.33 2.51 1.41 4.63 2.61 4.70 2.68 0.19 0.19 -2.44 2.21 -2.82 2.16 -0.07 0 -3.15 -1.72 -6.84 -3.81z"/>
 </g>
</svg>