<svg xmlns="http://www.w3.org/2000/svg" id="uuid-d5dd9e65-a304-4d93-9632-bc2a766ef802" width="47.46mm" height="15.57mm" viewBox="0 0 134.54 44.15"><defs><style>.uuid-89be4d6e-af78-4193-b691-0b19cba2ad10{fill:#133759;}.uuid-89be4d6e-af78-4193-b691-0b19cba2ad10,.uuid-cedd85a3-f574-4981-8463-1ad1e4fbcd1a{stroke-width:0px;}.uuid-cedd85a3-f574-4981-8463-1ad1e4fbcd1a{fill:#0268bc;}</style></defs><path class="uuid-89be4d6e-af78-4193-b691-0b19cba2ad10" d="M49.59,13.94c0,4.18-2.81,6.83-6.49,6.83-2.21,0-3.89-1.1-4.91-2.71v2.31h-1.55V.76h1.55v9.06c1.02-1.6,2.71-2.71,4.91-2.71,3.68,0,6.49,2.78,6.49,6.83ZM48.04,13.94c0-3.23-2.13-5.44-4.99-5.44s-4.99,2.15-4.99,5.44,2.13,5.44,4.99,5.44,4.99-2.07,4.99-5.44Z"></path><path class="uuid-89be4d6e-af78-4193-b691-0b19cba2ad10" d="M62.15,7.54h1.55v12.84h-1.55v-2.28c-.76,1.58-2.15,2.7-4.25,2.7-2.99,0-4.99-2-4.99-4.99V7.54h1.55v8.06c0,2.42,1.23,3.81,3.57,3.81,2.65,0,4.12-2.44,4.12-4.62v-7.25Z"></path><path class="uuid-89be4d6e-af78-4193-b691-0b19cba2ad10" d="M87.28,12.03v8.35h-1.55v-8.14c0-2.34-1.13-3.73-3.36-3.73-2.52,0-3.83,2.39-3.83,4.36v7.51h-1.52v-8.11c0-2.34-1.13-3.76-3.39-3.76-2.52,0-3.81,2.42-3.81,4.39v7.48h-1.55V7.54h1.55v2.07c.71-1.44,2-2.5,3.94-2.5,2.23,0,3.89,1.23,4.52,3.12.6-1.73,1.97-3.12,4.23-3.12,2.89,0,4.78,2,4.78,4.91Z"></path><path class="uuid-89be4d6e-af78-4193-b691-0b19cba2ad10" d="M101.99,7.54h1.55v12.84h-1.55v-2.31c-1.02,1.6-2.7,2.71-4.91,2.71-3.68,0-6.49-2.78-6.49-6.83s2.81-6.83,6.49-6.83c2.21,0,3.89,1.1,4.91,2.71v-2.28ZM102.13,13.94c0-3.28-2.13-5.44-4.99-5.44s-4.99,2.07-4.99,5.44,2.13,5.44,4.99,5.44,4.99-2.15,4.99-5.44Z"></path><path class="uuid-89be4d6e-af78-4193-b691-0b19cba2ad10" d="M107.17,13.97c0-4.1,2.86-6.85,6.7-6.85,2,0,3.68.66,4.88,1.94l-1,1.02c-.97-1.02-2.29-1.6-3.89-1.6-3.02,0-5.15,2.31-5.15,5.49s2.13,5.44,5.15,5.44c1.63,0,3.07-.68,4.04-1.76l1,1.05c-1.21,1.37-3.02,2.07-5.04,2.07-3.83,0-6.7-2.71-6.7-6.8Z"></path><path class="uuid-89be4d6e-af78-4193-b691-0b19cba2ad10" d="M121.02,13.94c0-4.1,2.94-6.83,6.78-6.83s6.75,2.73,6.75,6.83-2.91,6.83-6.75,6.83-6.78-2.73-6.78-6.83ZM132.99,13.94c0-3.18-2.18-5.44-5.2-5.44s-5.23,2.26-5.23,5.44,2.21,5.44,5.23,5.44,5.2-2.26,5.2-5.44Z"></path><path class="uuid-cedd85a3-f574-4981-8463-1ad1e4fbcd1a" d="M40.37,25.16h1.55v12.84c0,3.57-3.12,6.14-6.64,6.14-2.39,0-4.44-.71-6.28-2.49l.95-1.21c1.63,1.68,3.33,2.28,5.33,2.28,2.78,0,5.09-1.94,5.09-4.73v-2.57c-1.02,1.52-2.71,2.57-4.88,2.57-3.68,0-6.49-2.71-6.49-6.62s2.81-6.64,6.49-6.64c2.18,0,3.86,1.08,4.88,2.6v-2.18ZM40.53,31.38c0-3.18-2.13-5.25-4.99-5.25s-4.99,2-4.99,5.25,2.13,5.25,4.99,5.25,4.99-2.08,4.99-5.25Z"></path><path class="uuid-cedd85a3-f574-4981-8463-1ad1e4fbcd1a" d="M54.01,25.16l-.53,1.42-.73-.24c-2.36-.76-4.54,2.55-4.54,4.91v6.75h-1.55v-12.84h1.55v2.84c.95-2.07,2.84-3.75,5.04-3.07l.76.24Z"></path><path class="uuid-cedd85a3-f574-4981-8463-1ad1e4fbcd1a" d="M55.4,31.57c0-4.1,2.94-6.83,6.78-6.83s6.75,2.73,6.75,6.83-2.92,6.83-6.75,6.83-6.78-2.73-6.78-6.83ZM67.38,31.57c0-3.18-2.18-5.44-5.2-5.44s-5.23,2.26-5.23,5.44,2.21,5.44,5.23,5.44,5.2-2.26,5.2-5.44Z"></path><path class="uuid-cedd85a3-f574-4981-8463-1ad1e4fbcd1a" d="M81.48,25.16h1.55v12.84h-1.55v-2.28c-.76,1.58-2.15,2.7-4.25,2.7-2.99,0-4.99-2-4.99-4.99v-8.27h1.55v8.06c0,2.42,1.23,3.81,3.57,3.81,2.65,0,4.12-2.44,4.12-4.62v-7.25Z"></path><path class="uuid-cedd85a3-f574-4981-8463-1ad1e4fbcd1a" d="M100.6,31.57c0,4.04-2.81,6.83-6.49,6.83-2.21,0-3.89-1.1-4.91-2.7v8.46h-1.55v-18.99h1.55v2.29c1.02-1.6,2.7-2.71,4.91-2.71,3.68,0,6.49,2.65,6.49,6.83ZM99.06,31.57c0-3.36-2.13-5.44-4.99-5.44s-4.99,2.15-4.99,5.44,2.13,5.44,4.99,5.44,4.99-2.21,4.99-5.44Z"></path><path class="uuid-cedd85a3-f574-4981-8463-1ad1e4fbcd1a" d="M18.92,10.35c.06-.04.06-.1,0-.13l-5.36-3.1c-.06-.04-.12,0-.12.07v1.03c0,.07.05.16.12.2l4.24,2.45c.06.04.17.04.23,0l.89-.52Z"></path><path class="uuid-cedd85a3-f574-4981-8463-1ad1e4fbcd1a" d="M13.44,21.79c0,.07.05.1.12.07l5.36-3.1c.06-.04.06-.1,0-.13l-.89-.52c-.06-.04-.17-.04-.23,0l-4.24,2.45c-.06.04-.12.13-.12.2v1.03Z"></path><path class="uuid-cedd85a3-f574-4981-8463-1ad1e4fbcd1a" d="M19.48,17.66c.06.04.12,0,.12-.07v-6.19c0-.07-.05-.1-.12-.07l-.89.52c-.06.04-.12.13-.12.2v4.89c0,.07.05.16.12.2l.89.52Z"></path><path class="uuid-cedd85a3-f574-4981-8463-1ad1e4fbcd1a" d="M25.64,21.21c.06.04.12,0,.12-.07V7.84c0-.07-.05-.1-.12-.07l-.89.52c-.06.04-.12.13-.12.2v12c0,.07.05.16.12.2l.89.52Z"></path><path class="uuid-cedd85a3-f574-4981-8463-1ad1e4fbcd1a" d="M13.44,28.9c0,.07.05.1.12.07l11.52-6.65c.06-.04.06-.1,0-.13l-.89-.52c-.06-.04-.17-.04-.23,0l-10.4,6c-.06.04-.12.13-.12.2v1.03Z"></path><path class="uuid-cedd85a3-f574-4981-8463-1ad1e4fbcd1a" d="M25.08,6.8c.06-.04.06-.1,0-.13L13.55.02c-.06-.04-.12,0-.12.07v1.03c0,.07.05.16.12.2l10.4,6c.06.04.17.04.23,0l.89-.52Z"></path><path class="uuid-cedd85a3-f574-4981-8463-1ad1e4fbcd1a" d="M6.83,10.35c-.06-.04-.06-.1,0-.13l5.36-3.1c.06-.04.12,0,.12.07v1.03c0,.07-.05.16-.12.2l-4.24,2.45c-.06.04-.17.04-.23,0l-.89-.52Z"></path><path class="uuid-cedd85a3-f574-4981-8463-1ad1e4fbcd1a" d="M12.31,21.79c0,.07-.05.1-.12.07l-5.36-3.1c-.06-.04-.06-.1,0-.13l.89-.52c.06-.04.17-.04.23,0l4.24,2.45c.06.04.12.13.12.2v1.03Z"></path><path class="uuid-cedd85a3-f574-4981-8463-1ad1e4fbcd1a" d="M6.27,17.66c-.06.04-.12,0-.12-.07v-6.19c0-.07.05-.1.12-.07l.89.52c.06.04.12.13.12.2v4.89c0,.07-.05.16-.12.2l-.89.52Z"></path><path class="uuid-cedd85a3-f574-4981-8463-1ad1e4fbcd1a" d="M.12,21.21C.05,21.25,0,21.22,0,21.14V7.84c0-.07.05-.1.12-.07l.89.52c.06.04.12.13.12.2v12c0,.07-.05.16-.12.2l-.89.52Z"></path><path class="uuid-cedd85a3-f574-4981-8463-1ad1e4fbcd1a" d="M12.31,28.9c0,.07-.05.1-.12.07L.68,22.32c-.06-.04-.06-.1,0-.13l.89-.52c.06-.04.17-.04.23,0l10.4,6c.06.04.12.13.12.2v1.03Z"></path><path class="uuid-cedd85a3-f574-4981-8463-1ad1e4fbcd1a" d="M.68,6.8c-.06-.04-.06-.1,0-.13L12.2.02c.06-.04.12,0,.12.07v1.03c0,.07-.05.16-.12.2L1.8,7.32c-.06.04-.17.04-.23,0l-.89-.52Z"></path></svg>